HIERARCHY
ROOT Model_Hips
{
	OFFSET 0.000000 96.915077 0.000000
	CHANNELS 6 Xposition Yposition Zposition Xrotation Yrotation Zrotation
	JOINT Model_Spine
	{
		OFFSET 0.000000 11.137703 -1.289900
		CHANNELS 3 Xrotation Yrotation Zrotation
		JOINT Model_Spine1
		{
			OFFSET 0.000000 12.993942 -1.504922
			CHANNELS 3 Xrotation Yrotation Zrotation
			JOINT Model_Spine2
			{
				OFFSET 0.000000 14.850220 -1.719911
				CHANNELS 3 Xrotation Yrotation Zrotation
				JOINT Model_Neck
				{
					OFFSET 0.000000 16.706543 -1.934903
					CHANNELS 3 Xrotation Yrotation Zrotation
					JOINT Model_Head
					{
						OFFSET 0.000000 10.471298 2.002100
						CHANNELS 3 Xrotation Yrotation Zrotation
						JOINT Model_HeadTop_End
						{
							OFFSET 0.000000 20.842606 3.985100
							CHANNELS 3 Xrotation Yrotation Zrotation
							End Site
							{
								OFFSET 0.000000 21.220154 0.000000
							}
						}
					}
				}
				JOINT Model_LeftShoulder
				{
					OFFSET 7.008500 14.768600 -1.919946
					CHANNELS 3 Xrotation Yrotation Zrotation
					JOINT Model_LeftArm
					{
						OFFSET 14.126271 -3.718048 0.029937
						CHANNELS 3 Xrotation Yrotation Zrotation
						JOINT Model_LeftForeArm
						{
							OFFSET 28.282801 0.000000 0.000000
							CHANNELS 3 Xrotation Yrotation Zrotation
							JOINT Model_LeftHand
							{
								OFFSET 26.204689 0.000000 0.000000
								CHANNELS 3 Xrotation Yrotation Zrotation
								End Site
								{
									OFFSET 26.204704 0.000000 0.000000
								}
							}
						}
					}
				}
				JOINT Model_RightShoulder
				{
					OFFSET -7.008500 14.768555 -1.949840
					CHANNELS 3 Xrotation Yrotation Zrotation
					JOINT Model_RightArm
					{
						OFFSET -14.126281 -3.718018 -0.029932
						CHANNELS 3 Xrotation Yrotation Zrotation
						JOINT Model_RightForeArm
						{
							OFFSET -28.283798 0.000000 -0.000001
							CHANNELS 3 Xrotation Yrotation Zrotation
							JOINT Model_RightHand
							{
								OFFSET -26.204193 0.000000 -0.000001
								CHANNELS 3 Xrotation Yrotation Zrotation
								End Site
								{
									OFFSET -26.204208 0.000000 -0.000001
								}
							}
						}
					}
				}
			}
		}
	}
	JOINT Model_LeftUpLeg
	{
		OFFSET 8.327700 -6.193199 -0.402800
		CHANNELS 3 Xrotation Yrotation Zrotation
		JOINT Model_LeftLeg
		{
			OFFSET 0.735802 -42.108742 -0.610721
			CHANNELS 3 Xrotation Yrotation Zrotation
			JOINT Model_LeftFoot
			{
				OFFSET -0.735806 -36.833748 -0.172876
				CHANNELS 3 Xrotation Yrotation Zrotation
				JOINT Model_LeftToeBase
				{
					OFFSET -0.565857 -11.977769 16.297714
					CHANNELS 3 Xrotation Yrotation Zrotation
					JOINT Model_LeftToe_End
					{
						OFFSET -0.111712 -0.312793 7.857784
						CHANNELS 3 Xrotation Yrotation Zrotation
						End Site
						{
							OFFSET -0.111712 -0.312793 7.857784
						}
					}
				}
			}
		}
	}
	JOINT Model_RightUpLeg
	{
		OFFSET -8.327700 -6.193199 -0.516500
		CHANNELS 3 Xrotation Yrotation Zrotation
		JOINT Model_RightLeg
		{
			OFFSET -0.735785 -42.108738 -0.434061
			CHANNELS 3 Xrotation Yrotation Zrotation
			JOINT Model_RightFoot
			{
				OFFSET 0.735776 -36.833748 -0.021630
				CHANNELS 3 Xrotation Yrotation Zrotation
				JOINT Model_RightToeBase
				{
					OFFSET 0.565817 -11.977745 15.903093
					CHANNELS 3 Xrotation Yrotation Zrotation
					JOINT Model_RightToe_End
					{
						OFFSET 0.111702 -0.312791 7.811342
						CHANNELS 3 Xrotation Yrotation Zrotation
						End Site
						{
							OFFSET 0.111702 -0.312791 7.811342
						}
					}
				}
			}
		}
	}
}
MOTION
Frames: 15
Frame Time: 0.016667
1.340801 81.954514 144.929962 19.834830 15.313115 -2.989482 13.634066 -11.715847 0.506882 1.192680 -3.106713 -0.333660 1.219027 -3.083112 -0.331363 -6.544392 -1.237322 1.260323 -6.525378 -1.338395 1.158711 0.000001 0.000000 0.000001 0.327872 -8.941028 -13.921044 -23.561846 -28.695062 -37.120931 -0.000190 -85.869220 -0.000135 -0.000002 0.000000 -0.000001 0.760332 0.102764 13.328244 44.964566 -4.334798 50.265865 -0.000014 68.316857 0.000015 -0.000000 -0.000001 -0.000001 -26.959783 1.312460 7.186191 62.874979 0.390288 1.017505 -48.322021 4.047810 -4.657129 -8.018674 -0.000004 -0.000003 0.000000 -0.000001 -0.000000 -76.569419 -3.863995 -7.690508 134.201305 6.905174 0.249486 -11.072908 -0.639205 4.841907 1.432046 0.000003 -0.000001 0.000003 0.000001 0.000000 
1.341913 82.983696 152.321259 20.324992 14.151658 -4.664247 13.259880 -13.454504 2.772606 0.973457 -3.709070 -0.082667 0.996437 -3.691821 -0.088472 -6.494131 -0.863515 1.527100 -6.469679 -0.952877 1.426394 -0.000000 -0.000000 0.000000 0.423552 -7.991022 -12.553274 -25.291292 -26.430703 -35.256272 -0.000263 -91.304091 -0.000492 0.000002 0.000000 -0.000000 0.733647 0.146563 11.005296 50.630068 -5.464897 47.896876 -0.000006 72.979506 0.000030 0.000003 0.000001 -0.000000 -19.874201 1.963130 10.118667 55.932740 0.156115 2.120518 -43.468850 4.820209 -7.515668 -15.920623 -0.000004 -0.000005 0.000001 0.000001 0.000000 -81.872596 -3.034743 -5.898705 127.775655 4.280628 0.435895 -12.394165 -0.671016 4.862153 1.851319 -0.000001 0.000002 0.000004 0.000000 -0.000000 
1.369820 83.891426 159.669540 20.894754 11.668109 -6.357229 12.712799 -14.293920 4.993829 0.783094 -4.078579 0.132557 0.800035 -4.068823 0.115132 -6.409681 -0.565044 1.834023 -6.376176 -0.638428 1.731483 -0.000000 0.000001 0.000001 0.496730 -6.812569 -11.337047 -26.582635 -23.462313 -33.481717 0.000037 -96.582317 0.000025 0.000002 0.000001 0.000002 0.726419 1.274185 9.024863 55.765305 -8.106858 45.811400 0.000039 78.579277 -0.000023 0.000001 0.000000 0.000000 -13.448917 3.474753 12.921695 49.046420 1.535168 2.981537 -35.829741 5.182897 -11.127363 -26.517417 -0.000003 0.000002 -0.000000 -0.000001 -0.000000 -86.131534 -2.491162 -3.417863 120.130036 3.239189 0.848789 -12.889000 -0.635342 4.556661 1.462588 -0.000004 0.000001 -0.000001 -0.000001 -0.000000 
1.390347 84.796005 167.015945 21.239682 8.054016 -7.959077 12.273785 -14.186225 7.024993 0.718202 -4.191911 0.345689 0.727200 -4.190043 0.321409 -6.307967 -0.344234 2.135747 -6.263734 -0.401008 2.029477 -0.000000 0.000000 0.000001 0.541949 -5.471003 -10.378042 -27.200614 -20.549083 -31.807450 0.000049 -101.097065 0.000009 -0.000003 0.000004 0.000004 0.773941 3.585124 8.006230 59.693907 -12.211259 44.488734 0.000102 83.761711 -0.000040 0.000003 0.000000 0.000000 -7.745271 5.656464 15.379002 42.546546 4.731251 3.432021 -24.292975 4.683856 -15.748176 -36.149917 0.000004 0.000001 0.000000 0.000002 0.000000 -88.790998 -2.510839 -0.459516 111.110177 3.998193 1.466285 -12.611838 -0.581643 4.256394 1.223165 -0.000001 0.000000 -0.000001 -0.000000 0.000001 
1.404462 85.649910 174.349457 21.314148 3.891702 -9.143198 11.976334 -13.378588 8.525407 0.809686 -4.080445 0.545157 0.811296 -4.083272 0.523159 -6.246231 -0.180759 2.366079 -6.193132 -0.225426 2.256226 0.000000 -0.000000 0.000000 0.562609 -3.959217 -9.830947 -27.151791 -18.344012 -30.388389 0.000041 -104.497776 -0.000018 0.000003 0.000000 0.000000 0.836842 6.311235 7.868009 61.839003 -17.096505 44.161534 -0.000301 87.884966 0.000323 0.000000 0.000001 -0.000001 -4.175784 7.472352 16.368431 38.784953 4.470644 3.290868 -11.635839 2.197062 -15.543084 -37.004391 1.148115 -6.614325 0.000000 -0.000002 -0.000000 -89.689523 -2.741831 2.635790 100.944978 5.370168 2.134639 -11.967073 -0.599214 4.657351 1.404471 0.000006 -0.000002 -0.000001 -0.000001 0.000000 
1.396461 86.367798 181.579315 21.416386 -0.054794 -9.552286 11.697014 -12.259022 9.169339 0.921488 -3.825148 0.680743 0.918749 -3.826557 0.670595 -6.267230 -0.054768 2.488654 -6.209593 -0.094851 2.377163 0.000002 -0.000000 0.000000 0.571678 -2.427302 -9.756510 -26.534918 -17.048593 -29.447247 0.000015 -106.620476 -0.000005 -0.000001 0.000001 0.000001 1.131386 8.433149 7.048926 61.598730 -20.301711 45.149722 -0.001550 90.378736 0.001420 -0.000002 -0.000001 -0.000000 0.680372 9.234543 14.961326 31.140666 2.408870 3.033225 3.107050 -0.648494 -11.381832 -51.993391 5.188865 -5.874276 0.000000 0.000002 -0.000000 -89.174963 -2.755260 5.347998 90.053155 5.569914 2.585789 -11.473855 -0.681521 5.740142 1.665210 0.000000 -0.000002 0.000000 -0.000001 -0.000000 
1.324676 87.109169 188.816162 21.829939 -3.126279 -9.098406 11.114357 -11.192750 8.859525 1.020228 -3.519915 0.742499 1.016997 -3.517430 0.740863 -6.346263 0.046756 2.496146 -6.288966 0.003902 2.384539 -0.000000 0.000001 -0.000000 0.582996 -1.246603 -10.090277 -24.864901 -16.262704 -29.143802 0.000009 -107.442789 -0.000008 -0.000005 0.000001 0.000001 1.036528 9.442935 7.841335 59.459713 -23.542759 45.588251 -0.000080 91.836627 -0.000108 0.000003 0.000001 -0.000001 6.666240 10.149992 12.198761 22.526087 1.538057 2.854670 13.982581 -1.928021 -9.360349 -49.098207 4.826239 -4.899792 0.000002 0.000001 -0.000000 -87.257210 -2.458282 7.114252 78.589714 3.916545 2.786387 -11.561424 -0.737981 6.619335 1.467351 0.000004 0.000000 0.000000 -0.000001 -0.000001 
1.182540 87.869972 196.175522 22.397620 -5.005467 -8.045584 10.245216 -10.342121 7.925127 1.186764 -3.233292 0.719037 1.183588 -3.230544 0.712683 -6.410469 0.127026 2.404407 -6.357162 0.076945 2.291725 0.000002 0.000001 -0.000001 0.596568 -0.796599 -10.666613 -22.004996 -15.435813 -29.570840 0.000023 -106.998950 -0.000022 -0.000003 0.000000 -0.000001 0.838935 9.360336 9.022698 55.607172 -24.687488 45.629902 0.000179 91.915843 -0.000231 0.000001 -0.000001 -0.000000 12.516663 9.959445 9.259195 15.034295 0.772538 2.516932 22.350805 -2.469784 -8.585380 -24.609576 0.723689 -1.809432 -0.000001 0.000000 -0.000001 -83.965571 -2.094422 7.657638 67.004811 1.413261 2.857638 -12.258183 -0.780921 6.693862 0.712464 0.000002 0.000001 -0.000000 -0.000000 -0.000001 
1.059145 88.177834 203.274200 22.636717 -5.851515 -6.875909 10.103655 -9.544961 6.919354 1.216585 -2.974293 0.641869 1.214901 -2.970860 0.635296 -6.400848 0.172641 2.250542 -6.353172 0.114560 2.133715 0.000003 -0.000000 -0.000000 0.597635 -1.224094 -11.292272 -19.113548 -14.238876 -30.749389 0.000000 -105.629586 -0.000014 -0.000004 -0.000001 -0.000002 0.783946 8.563269 9.871788 51.211806 -23.918626 45.646489 -0.000456 91.931730 0.000328 0.000000 0.000000 -0.000001 13.753261 8.751319 7.316703 17.783308 -1.082792 2.178107 25.031083 -2.540419 -7.960628 -3.580123 0.000001 -0.000002 -0.000000 -0.000000 -0.000000 -80.028548 -1.945744 6.995574 56.385923 -0.463534 3.199088 -12.876729 -0.735104 6.105699 0.208609 -0.000002 -0.000001 0.000001 0.000001 -0.000000 
0.971297 88.236023 210.351486 22.278518 -6.065240 -5.885437 10.618545 -8.739453 6.066613 1.294012 -2.721131 0.545364 1.293930 -2.716830 0.539184 -6.305367 0.166483 2.067804 -6.263288 0.101689 1.944312 -0.000000 -0.000000 -0.000000 0.575761 -2.319448 -11.860080 -15.755863 -12.496080 -32.656654 -0.000022 -103.502221 -0.000060 0.000002 -0.000002 -0.000002 0.714516 7.544768 11.166690 46.371684 -22.197130 45.135905 -0.000053 91.833034 -0.000001 0.000001 0.000000 -0.000001 12.718510 7.324120 5.966918 26.024651 -2.253582 2.144482 24.809160 -2.456763 -7.652669 -3.332476 -0.000001 0.000001 -0.000000 -0.000000 -0.000000 -75.450969 -1.998268 5.752810 47.576588 -1.277630 3.665395 -13.149152 -0.671193 5.491953 0.764648 -0.000001 0.000002 0.000003 0.000000 -0.000000 
0.933463 88.154701 217.525772 21.509872 -6.039039 -5.146018 11.499138 -7.904094 5.477962 1.451109 -2.465979 0.470843 1.451987 -2.460191 0.466766 -6.166468 0.115062 1.865842 -6.129155 0.044691 1.735804 -0.000003 0.000001 -0.000000 0.537774 -3.550536 -12.422745 -11.663651 -10.449353 -35.168996 0.000074 -100.636567 0.000016 -0.000000 -0.000003 -0.000004 0.646472 6.674207 12.759722 40.978581 -19.653840 44.187021 -0.000000 91.303858 0.000112 0.000000 0.000001 0.000000 9.390280 5.970975 5.117277 38.871259 -0.748529 2.319478 22.338096 -2.420213 -8.241505 -2.988351 0.000001 -0.000001 -0.000000 0.000000 -0.000000 -70.770520 -1.968023 4.537305 41.571871 -1.647709 3.758179 -12.965705 -0.674234 5.648640 2.004073 -0.000001 -0.000001 0.000003 0.000000 -0.000001 
0.929166 87.972183 224.852737 20.735498 -6.038227 -4.630001 12.311981 -7.085316 5.190998 1.658580 -2.222199 0.452168 1.659142 -2.215165 0.451110 -6.052562 0.047917 1.644491 -6.019184 -0.027445 1.510259 0.000000 0.000001 0.000000 0.501723 -4.305875 -13.114383 -6.784664 -8.578733 -38.087228 0.000100 -96.846181 0.000131 -0.000003 -0.000002 -0.000005 0.585398 6.144090 14.364398 35.023089 -16.209485 43.032234 0.148130 89.996697 -0.089303 0.000002 -0.000001 0.000002 5.664148 5.139384 4.666988 51.539996 2.211007 2.408245 19.878159 -2.234027 -7.918215 -2.537221 0.000003 -0.000003 0.000001 -0.000000 0.000001 -66.532210 -1.515768 3.823258 38.882542 -2.388914 3.001354 -12.209916 -0.788542 7.141488 2.737086 0.000001 -0.000000 -0.000001 0.000000 0.000000 
0.909752 87.601486 232.315369 20.193118 -6.241870 -4.332472 12.796415 -6.283865 5.203361 1.864041 -1.990236 0.492346 1.863151 -1.982662 0.493720 -6.014793 -0.017821 1.431231 -5.984266 -0.096943 1.295430 0.000000 -0.000000 -0.000000 0.489113 -4.229432 -13.994463 -1.376779 -7.262497 -41.204434 0.000176 -91.948696 -0.000005 -0.000003 0.000001 0.000002 0.521460 6.014752 15.827336 28.770464 -11.970172 41.917619 0.000023 87.910327 0.000093 0.000001 -0.000001 0.000000 1.173862 4.934396 4.848974 64.194346 4.979231 2.254623 16.943080 -1.891324 -6.698475 -1.439815 -0.000002 0.000000 0.000001 0.000001 -0.000000 -63.034142 -0.640268 3.847076 39.426147 -3.579048 1.552817 -10.828526 -0.921825 9.537572 2.342143 0.000001 -0.000001 -0.000001 0.000000 0.000000 
0.782553 86.909531 239.802414 19.852937 -6.795120 -4.316465 12.990747 -5.343993 5.477049 2.026771 -1.727066 0.568782 2.023870 -1.719645 0.570375 -6.063079 -0.102006 1.291463 -6.033899 -0.182297 1.155264 -0.000001 0.000001 -0.000000 0.516037 -3.416878 -14.924476 4.065754 -6.492494 -44.547423 -0.000072 -85.920187 0.000055 -0.000005 0.000001 -0.000001 0.432347 6.280652 17.283164 22.534239 -7.341277 40.857392 0.000130 85.463855 -0.000141 -0.000000 -0.000001 -0.000002 -4.098372 5.248927 5.943137 76.686338 6.341073 1.893735 13.805189 -1.519109 -5.081119 -0.195805 -0.000002 -0.000001 -0.000001 -0.000001 0.000000 -61.895755 -0.562819 5.692295 45.397747 -4.892942 0.246309 -9.949414 -0.652485 2.345411 1.566934 -0.000002 0.000001 0.000000 0.000000 0.000000 
0.599407 85.952728 247.153336 19.631217 -7.824234 -4.707051 13.142850 -3.952271 5.981008 2.116500 -1.357487 0.678895 2.111385 -1.352032 0.677013 -6.175490 -0.237729 1.270372 -6.146329 -0.316253 1.132341 0.000001 -0.000002 0.000001 0.572991 -2.330130 -15.615216 8.839148 -5.839325 -48.486458 -0.000115 -78.866364 -0.000082 -0.000003 -0.000000 0.000003 0.295287 6.873659 18.948215 16.415796 -2.647303 39.606262 -0.000022 83.199231 0.000057 0.000000 -0.000002 0.000001 -10.245087 5.785622 8.068150 88.713625 5.740932 1.429375 10.688169 -1.161729 -3.029596 0.357204 0.000001 0.000000 0.000000 -0.000000 -0.000000 -61.390772 -0.651608 6.740518 52.623083 -5.342471 -0.122842 -7.036183 -0.649346 2.284877 -3.296964 -0.002742 0.385150 -0.000000 -0.000000 -0.000000 
